# xmcd
#
# Track frame offsets:
#	150
#	17044
#	33838
#	52189
#	70213
#	87757
#	109872
#	124146
#	140756
#	159278
#	175331
#	192332
#	207194
#
# Disc length: 2969 seconds
#
# Revision: 1
# Processed by: cddbd v1.5.2PL0 Copyright (c) Steve Scherf et al.
# Submitted via: audiograbber 1.83.01
#
DISCID=b50b970d
DTITLE=Aaron Tippin - Now And Then
DYEAR=2006
DGENRE=Country
TTITLE0=Ready To Rock
TTITLE1=I Could Not Stop Myself
TTITLE2=He Believed
TTITLE3=Whole Lotta Love On The Line
TTITLE4=Working Man's PHD
TTITLE5=Call Of The Wild
TTITLE6=There Ain't Nothing Wrong With The Radio
TTITLE7=That's As Close As I'll Get To You
TTITLE8=I Got It Honest
TTITLE9=I Wouldn't Have It Any Other Way
TTITLE10=I Wonder How Far It Is Over You
TTITLE11=Honky Tonk Superman
TTITLE12=My Blue Angel
EXTD=
EXTT0=
EXTT1=
EXTT2=
EXTT3=
EXTT4=
EXTT5=
EXTT6=
EXTT7=
EXTT8=
EXTT9=
EXTT10=
EXTT11=
EXTT12=
PLAYORDER=
